<svg xmlns="http://www.w3.org/2000/svg" version="1.1" xmlns:xlink="http://www.w3.org/1999/xlink" xmlns:svgjs="http://svgjs.dev/svgjs" width="1500" height="1500" viewBox="0 0 1500 1500"><rect width="1500" height="1500" fill="#ffffff"></rect><g transform="matrix(0.6666666666666666,0,0,0.6666666666666666,248.07477508158615,213.94301075268822)"><svg viewBox="0 0 232 248" data-background-color="#ffffff" preserveAspectRatio="xMidYMid meet" height="1603" width="1500" xmlns="http://www.w3.org/2000/svg" xmlns:xlink="http://www.w3.org/1999/xlink"><g id="tight-bounds" transform="matrix(1,0,0,1,0.446652181072011,0.4000000000000057)"><svg viewBox="0 0 231.10669563785598 247.2" height="247.2" width="231.10669563785598"><g><svg viewBox="0 0 395.52 423.06235970423586" height="247.2" width="231.10669563785598"><g transform="matrix(1,0,0,1,0,254.3212175147271)"><svg viewBox="0 0 395.52 168.74114218950876" height="168.74114218950876" width="395.52"><g id="textblocktransform"><svg viewBox="0 0 395.52 168.74114218950876" height="168.74114218950876" width="395.52" id="textblock"><g><svg viewBox="0 0 395.52 89.46677768526229" height="89.46677768526229" width="395.52"><g transform="matrix(1,0,0,1,0,0)"><svg width="395.52" viewBox="1.45 -40.25 180.14000000000001 40.75" height="89.46677768526229" data-palette-color="#000000"><path d="M36.1-25.6L36.1-15.5Q36.1-11.55 35.33-8.55 34.55-5.55 32.83-3.55 31.1-1.55 28.35-0.53 25.6 0.5 21.7 0.5L21.7 0.5Q18 0.5 15.25-0.23 12.5-0.95 10.65-2.63 8.8-4.3 7.9-7 7-9.7 7-13.65L7-13.65 7-26.85Q7-30.55 6.83-32.55 6.65-34.55 5.8-35.5L5.8-35.5Q5.2-36.15 4.17-36.38 3.15-36.6 1.45-36.6L1.45-36.6 1.45-38.5 18.5-38.5 18.5-36.6Q16.8-36.6 15.75-36.4 14.7-36.2 14.1-35.4L14.1-35.4Q13.4-34.5 13.2-32.52 13-30.55 13-26.85L13-26.85 13-13.25Q13-10.7 13.53-8.72 14.05-6.75 15.25-5.38 16.45-4 18.38-3.3 20.3-2.6 23.1-2.6L23.1-2.6Q28.1-2.6 30.6-5.38 33.1-8.15 33.1-13.55L33.1-13.55 33.1-25.6Q33.1-30.05 32.75-32.35 32.4-34.65 31.45-35.6L31.45-35.6Q30.75-36.25 29.7-36.43 28.65-36.6 27.1-36.6L27.1-36.6 27.1-38.5 41.6-38.5 41.6-36.6Q40-36.6 38.98-36.35 37.95-36.1 37.35-35.25L37.35-35.25Q36.6-34.2 36.35-31.98 36.1-29.75 36.1-25.6L36.1-25.6ZM52.25-14.55L52.25-7.85Q52.25-5.8 52.35-4.63 52.45-3.45 52.87-2.83 53.3-2.2 54.12-2 54.95-1.8 56.4-1.7L56.4-1.7 56.4 0 43.3 0 43.3-1.7Q44.7-1.8 45.52-2 46.35-2.2 46.8-2.8 47.25-3.4 47.37-4.5 47.5-5.6 47.5-7.5L47.5-7.5 47.5-14.15Q47.5-20.1 47.2-21.4L47.2-21.4Q47.05-22.05 46.82-22.48 46.6-22.9 46.15-23.13 45.7-23.35 45-23.43 44.3-23.5 43.2-23.5L43.2-23.5 43.2-25.1 51.2-27 51.8-22.05 52-22.05Q53.9-24.4 56.45-25.7 59-27 62-27L62-27Q64.3-27 66.2-26.25 68.1-25.5 69.1-24.2L69.1-24.2Q69.95-23.05 70.3-21.23 70.65-19.4 70.65-16.2L70.65-16.2 70.65-7.85Q70.65-5.8 70.77-4.63 70.9-3.45 71.3-2.83 71.7-2.2 72.52-2 73.35-1.8 74.7-1.7L74.7-1.7 74.7 0 61.75 0 61.75-1.7Q63.15-1.75 63.97-1.98 64.8-2.2 65.22-2.8 65.65-3.4 65.77-4.53 65.9-5.65 65.9-7.5L65.9-7.5 65.9-14.1Q65.9-16.95 65.6-18.9 65.3-20.85 64.62-22.05 63.95-23.25 62.85-23.78 61.75-24.3 60.2-24.3L60.2-24.3Q57.95-24.3 56.07-23.13 54.2-21.95 53.15-19.9L53.15-19.9Q52.9-19.4 52.72-18.95 52.55-18.5 52.45-17.9 52.35-17.3 52.3-16.53 52.25-15.75 52.25-14.55L52.25-14.55ZM87.3-27L87.3-7.95Q87.3-6 87.47-4.83 87.65-3.65 88.15-2.98 88.65-2.3 89.55-2.05 90.45-1.8 91.95-1.75L91.95-1.75 91.95 0 77.6 0 77.6-1.75Q79.1-1.8 80.05-2.08 81-2.35 81.52-2.98 82.05-3.6 82.22-4.73 82.4-5.85 82.4-7.6L82.4-7.6 82.4-14Q82.4-16.9 82.32-18.78 82.25-20.65 82.05-21.35L82.05-21.35Q81.8-22.5 80.9-22.93 80-23.35 77.5-23.35L77.5-23.35 77.5-25.1 87.3-27ZM81.55-37.15L81.55-37.15Q81.55-38.45 82.45-39.35 83.35-40.25 84.65-40.25L84.65-40.25Q85.95-40.25 86.85-39.35 87.75-38.45 87.75-37.15L87.75-37.15Q87.75-35.85 86.85-34.95 85.95-34.05 84.65-34.05L84.65-34.05Q83.35-34.05 82.45-34.95 81.55-35.85 81.55-37.15ZM98.24-1.75L97.24 0 96.14 0 96.14-8.6 97.39-8.6Q99.34-1.55 104.49-1.55L104.49-1.55Q106.49-1.55 107.67-2.53 108.84-3.5 108.84-5.5L108.84-5.5Q108.84-6.25 108.62-6.78 108.39-7.3 107.77-7.88 107.14-8.45 106.02-9.2 104.89-9.95 103.04-11.1L103.04-11.1Q101.34-12.15 100.09-13.05 98.84-13.95 97.99-14.88 97.14-15.8 96.72-16.85 96.29-17.9 96.29-19.3L96.29-19.3Q96.29-21 96.87-22.43 97.44-23.85 98.44-24.85 99.44-25.85 100.79-26.43 102.14-27 103.74-27L103.74-27Q105.09-27 106.54-26.58 107.99-26.15 109.09-25.45L109.09-25.45 110.09-26.5 111.04-26.5 111.04-19.3 109.74-19.3Q108.64-22.35 107.34-23.65 106.04-24.95 104.14-24.95L104.14-24.95Q102.44-24.95 101.42-24.05 100.39-23.15 100.39-21.55L100.39-21.55Q100.39-20.7 100.67-20.08 100.94-19.45 101.54-18.85 102.14-18.25 103.07-17.63 103.99-17 105.29-16.2L105.29-16.2Q107.44-14.85 108.97-13.8 110.49-12.75 111.44-11.73 112.39-10.7 112.84-9.6 113.29-8.5 113.29-7.1L113.29-7.1Q113.29-3.55 110.99-1.53 108.69 0.5 104.94 0.5L104.94 0.5Q101.04 0.5 98.24-1.75L98.24-1.75ZM131.89-27L131.89-27Q134.74-27 137.29-25.98 139.84-24.95 141.77-23.15 143.69-21.35 144.82-18.88 145.94-16.4 145.94-13.45L145.94-13.45Q145.94-10.4 144.82-7.85 143.69-5.3 141.77-3.45 139.84-1.6 137.29-0.55 134.74 0.5 131.89 0.5L131.89 0.5Q129.09 0.5 126.57-0.53 124.04-1.55 122.14-3.4 120.24-5.25 119.14-7.83 118.04-10.4 118.04-13.45L118.04-13.45Q118.04-16.4 119.14-18.9 120.24-21.4 122.14-23.2 124.04-25 126.57-26 129.09-27 131.89-27ZM131.89-24.6L131.89-24.6Q130.04-24.6 128.52-23.8 126.99-23 125.92-21.53 124.84-20.05 124.27-17.98 123.69-15.9 123.69-13.4L123.69-13.4Q123.69-10.8 124.27-8.7 124.84-6.6 125.92-5.13 126.99-3.65 128.49-2.85 129.99-2.05 131.89-2.05L131.89-2.05Q133.79-2.05 135.34-2.85 136.89-3.65 137.99-5.15 139.09-6.65 139.69-8.75 140.29-10.85 140.29-13.4L140.29-13.4Q140.29-15.9 139.69-17.95 139.09-20 137.99-21.48 136.89-22.95 135.34-23.78 133.79-24.6 131.89-24.6ZM159.14-14.55L159.14-7.85Q159.14-5.8 159.24-4.63 159.34-3.45 159.76-2.83 160.19-2.2 161.01-2 161.84-1.8 163.29-1.7L163.29-1.7 163.29 0 150.19 0 150.19-1.7Q151.59-1.8 152.41-2 153.24-2.2 153.69-2.8 154.14-3.4 154.26-4.5 154.39-5.6 154.39-7.5L154.39-7.5 154.39-14.15Q154.39-20.1 154.09-21.4L154.09-21.4Q153.94-22.05 153.71-22.48 153.49-22.9 153.04-23.13 152.59-23.35 151.89-23.43 151.19-23.5 150.09-23.5L150.09-23.5 150.09-25.1 158.09-27 158.69-22.05 158.89-22.05Q160.79-24.4 163.34-25.7 165.89-27 168.89-27L168.89-27Q171.19-27 173.09-26.25 174.99-25.5 175.99-24.2L175.99-24.2Q176.84-23.05 177.19-21.23 177.54-19.4 177.54-16.2L177.54-16.2 177.54-7.85Q177.54-5.8 177.66-4.63 177.79-3.45 178.19-2.83 178.59-2.2 179.41-2 180.24-1.8 181.59-1.7L181.59-1.7 181.59 0 168.64 0 168.64-1.7Q170.04-1.75 170.86-1.98 171.69-2.2 172.11-2.8 172.54-3.4 172.66-4.53 172.79-5.65 172.79-7.5L172.79-7.5 172.79-14.1Q172.79-16.95 172.49-18.9 172.19-20.85 171.51-22.05 170.84-23.25 169.74-23.78 168.64-24.3 167.09-24.3L167.09-24.3Q164.84-24.3 162.96-23.13 161.09-21.95 160.04-19.9L160.04-19.9Q159.79-19.4 159.61-18.95 159.44-18.5 159.34-17.9 159.24-17.3 159.19-16.53 159.14-15.75 159.14-14.55L159.14-14.55Z" opacity="1" transform="matrix(1,0,0,1,0,0)" fill="#000000" class="wordmark-text-0" data-fill-palette-color="primary" id="text-0"></path></svg></g></svg></g><g transform="matrix(1,0,0,1,103.43477842960588,110.58773669408826)"><svg viewBox="0 0 188.6504431407882 58.153405495420486" height="58.153405495420486" width="188.6504431407882"><g transform="matrix(1,0,0,1,0,0)"><svg width="188.6504431407882" viewBox="2 -35.3 142.24 43.849999999999994" height="58.153405495420486" data-palette-color="#000000"><path d="M31.65-0.4L32.35-0.4 32.35 0 27.2 0Q26 0 25.4-0.35 24.8-0.7 24.15-1.7L24.15-1.7 16.5-14.05Q15.8-15.2 15.33-15.48 14.85-15.75 13.65-15.75L13.65-15.75 9.95-15.75 9.95-0.8 14.3-0.4 14.3 0 2 0 2-0.4 6.1-0.8 6.1-33.7 2-34.1 2-34.5 14.65-34.5Q20.55-34.5 23.65-32.13 26.75-29.75 26.75-25.25L26.75-25.25Q26.75-21.75 24.85-19.5 22.95-17.25 19.35-16.4L19.35-16.4 19.4-16.4 28.55-2.1Q29.2-1.1 29.83-0.75 30.45-0.4 31.65-0.4L31.65-0.4ZM14.5-33.9L9.95-33.9 9.95-16.5 14.5-16.5Q18.5-16.5 20.43-18.63 22.35-20.75 22.35-25.15L22.35-25.15Q22.35-29.6 20.4-31.75 18.45-33.9 14.5-33.9L14.5-33.9ZM48.3-5.1L48.75-5.7 48.95-5.6 48.75-5.05Q47.75-2.4 45.77-0.95 43.8 0.5 41.05 0.5L41.05 0.5Q38.35 0.5 36.25-0.9 34.15-2.3 32.97-4.8 31.8-7.3 31.8-10.55L31.8-10.55Q31.8-13.8 33.05-16.35 34.3-18.9 36.6-20.3 38.9-21.7 41.85-21.7L41.85-21.7Q45.35-21.7 47.22-19.63 49.1-17.55 49.15-13.6L49.15-13.6 48.85-13.35 35.35-13.35Q35.25-12.05 35.25-11.3L35.25-11.3Q35.25-6.75 37.1-4.38 38.95-2 42.25-2L42.25-2Q43.95-2 45.52-2.78 47.1-3.55 48.3-5.1L48.3-5.1ZM41.3-21.15Q38.95-21.15 37.4-19.2 35.85-17.25 35.4-13.9L35.4-13.9 45.1-14.25Q45.25-14.85 45.25-16.25L45.25-16.25Q45.25-18.95 44.22-20.05 43.2-21.15 41.3-21.15L41.3-21.15ZM57.45 0.35Q55.55 0.35 54.32-0.98 53.1-2.3 53.1-4.4L53.1-4.4Q53.1-6.9 55.37-8.4 57.65-9.9 63.1-11L63.1-11 63.1-15.55Q63.1-18.45 62.45-19.58 61.8-20.7 60.2-20.7L60.2-20.7Q58.65-20.7 57.7-19.88 56.75-19.05 56.75-17.65L56.75-17.65 56.8-16.3Q56.8-15.05 56.32-14.33 55.85-13.6 55-13.6L55-13.6Q54.25-13.6 53.77-14.1 53.3-14.6 53.3-15.4L53.3-15.4Q53.3-16.6 54.47-18.03 55.65-19.45 57.5-20.4L57.5-20.4Q59.75-21.65 62.15-21.65L62.15-21.65Q63.55-21.65 64.52-21.1 65.5-20.55 65.95-19.55L65.95-19.55Q66.2-18.9 66.27-17.95 66.35-17 66.35-14.3L66.35-14.3 66.35-4.75Q66.35-2.95 66.7-2.27 67.05-1.6 67.95-1.6L67.95-1.6Q69.3-1.6 69.95-2.55L69.95-2.55 70.15-2.45Q69.55-1.2 68.55-0.53 67.55 0.15 66.4 0.15L66.4 0.15Q65.1 0.15 64.25-0.63 63.4-1.4 63.3-2.7L63.3-2.7 63.15-2.75Q62-1.3 60.5-0.48 59 0.35 57.45 0.35L57.45 0.35ZM59.6-1.55Q60.65-1.55 61.57-2.02 62.5-2.5 63.1-3.4L63.1-3.4 63.1-10.45Q60.5-9.8 59.07-9.15 57.65-8.5 57.05-7.6 56.45-6.7 56.45-5.35L56.45-5.35Q56.45-3.6 57.3-2.58 58.15-1.55 59.6-1.55L59.6-1.55ZM82.39-21.7Q79.54-21.7 77.29-20.25 75.04-18.8 73.77-16.2 72.49-13.6 72.49-10.35L72.49-10.35Q72.49-7.2 73.67-4.73 74.84-2.25 76.92-0.88 78.99 0.5 81.64 0.5L81.64 0.5Q84.39 0.5 86.42-0.95 88.44-2.4 89.44-5.05L89.44-5.05 89.64-5.6 89.44-5.7 88.99-5.1Q87.74-3.5 86.27-2.73 84.79-1.95 82.94-1.95L82.94-1.95Q79.54-1.95 77.69-4.35 75.84-6.75 75.84-11.1L75.84-11.1Q75.84-14 76.67-16.3 77.49-18.6 78.94-19.9 80.39-21.2 82.19-21.2L82.19-21.2Q83.69-21.2 84.24-20.4 84.79-19.6 85.14-18.05L85.14-18.05Q85.44-16.7 85.82-16.07 86.19-15.45 87.19-15.45L87.19-15.45Q88.04-15.45 88.54-15.98 89.04-16.5 89.04-17.35L89.04-17.35Q89.04-19.2 87.12-20.45 85.19-21.7 82.39-21.7L82.39-21.7ZM97.49-26L91.99-20.7 92.09-20.45 94.44-20.45 94.44-4.45Q94.44-2.9 94.79-1.95 95.14-1 95.99-0.4L95.99-0.4Q97.24 0.5 98.84 0.5L98.84 0.5Q100.39 0.5 101.77-0.4 103.14-1.3 103.89-2.85L103.89-2.85 103.69-3Q102.79-2.1 102.04-1.7 101.29-1.3 100.49-1.3L100.49-1.3Q98.84-1.3 98.24-2.5L98.24-2.5Q97.69-3.35 97.69-5.1L97.69-5.1 97.69-20.4 103.09-20.4 103.39-21.2 97.69-21.2 97.69-25.95 97.49-26ZM109.79 1Q109.79 4.15 108.81 6.05 107.84 7.95 106.24 7.95L106.24 7.95Q104.54 7.95 104.54 6.2L104.54 6.2 104.59 4.75Q104.59 3.7 104.04 3.1 103.49 2.5 102.49 2.5L102.49 2.5Q101.54 2.5 100.96 3.1 100.39 3.7 100.39 4.7L100.39 4.7Q100.39 6.35 101.94 7.45 103.49 8.55 105.84 8.55L105.84 8.55Q107.69 8.55 109.34 7.73 110.99 6.9 111.99 5.45L111.99 5.45Q112.89 4.15 113.26 2.27 113.64 0.4 113.64-2.85L113.64-2.85 113.64-33.7 117.74-34.1 117.74-34.5 105.69-34.5 105.69-34.1 109.79-33.7 109.79 1ZM133.39 0.8Q136.49 0.8 138.96-0.5 141.44-1.8 142.84-4.08 144.24-6.35 144.24-9.25L144.24-9.25Q144.24-11.85 143.11-13.63 141.99-15.4 140.16-16.6 138.34-17.8 135.34-19.15L135.34-19.15Q131.99-20.7 130.16-21.8 128.34-22.9 127.31-24.4 126.29-25.9 126.29-28.1L126.29-28.1Q126.29-31.15 128.14-32.93 129.99-34.7 133.09-34.7L133.09-34.7Q138.24-34.7 140.74-29.55L140.74-29.55Q141.99-27 142.79-23.65L142.79-23.65 143.29-23.8 142.79-34.7 142.14-34.7 140.94-32.3Q138.89-33.9 137.11-34.6 135.34-35.3 133.29-35.3L133.29-35.3Q130.34-35.3 128.01-34.08 125.69-32.85 124.36-30.68 123.04-28.5 123.04-25.75L123.04-25.75Q123.04-23.05 124.26-21.18 125.49-19.3 127.34-18.13 129.19-16.95 131.94-15.75L131.94-15.75Q135.29-14.3 137.14-13.2 138.99-12.1 140.06-10.55 141.14-9 141.14-6.75L141.14-6.75Q141.14-3.55 139.11-1.68 137.09 0.2 133.49 0.2L133.49 0.2Q129.29 0.2 126.74-2.65L126.74-2.65Q125.49-4.05 124.71-5.95 123.94-7.85 123.19-11.25L123.19-11.25 122.74-11.15 123.39 0.8 124.04 0.8 125.09-1.95Q126.64-0.65 128.84 0.08 131.04 0.8 133.39 0.8L133.39 0.8Z" opacity="1" transform="matrix(1,0,0,1,0,0)" fill="#000000" class="slogan-text-1" data-fill-palette-color="secondary" id="text-1"></path></svg></g></svg></g></svg></g></svg></g><g transform="matrix(1,0,0,1,81.15987074704944,0)"><svg viewBox="0 0 233.2002585059011 233.2002585059011" height="233.2002585059011" width="233.2002585059011"><g><svg></svg></g><g id="icon-0"><svg viewBox="0 0 233.2002585059011 233.2002585059011" height="233.2002585059011" width="233.2002585059011"><g><path transform="scale(2.332,2.332)" d="M30 100c-16.569 0-30-13.431-30-30v-40c0-16.569 13.431-30 30-30h40c16.569 0 30 13.431 30 30v40c0 16.569-13.431 30-30 30z" fill="#000000" fill-rule="nonzero" stroke="none" stroke-width="1" stroke-linecap="butt" stroke-linejoin="miter" stroke-miterlimit="10" stroke-dasharray="" stroke-dashoffset="0" font-family="none" font-weight="none" font-size="none" text-anchor="none" style="mix-blend-mode: normal" data-fill-palette-color="accent"></path></g><g transform="matrix(1,0,0,1,46.64005170118021,60.333531942447195)"><svg viewBox="0 0 139.92015510354068 112.53319462100671" height="112.53319462100671" width="139.92015510354068"><g><svg xmlns="http://www.w3.org/2000/svg" xmlns:xlink="http://www.w3.org/1999/xlink" version="1.1" x="0" y="0" viewBox="0 9.786 100.00034525290005 80.42699999999999" enable-background="new 0 0 100 100" xml:space="preserve" id="dxe-0" width="139.92015510354068" height="112.53319462100671" class="icon-dxe-0" data-fill-palette-color="quaternary"><path d="M49.942 52.994L90.595 51.529C88.068 47.352 87.436 43.698 82.606 43.068 75.377 42.128 68.148 41.185 60.918 40.242L18.843 34.762C20.101 36.792 39.724 53.361 49.942 52.994" fill="#ffffff" data-fill-palette-color="quaternary"></path><path d="M0 9.786C4.391 17.043 26.615 32.858 32.953 33.672 50.283 35.903 67.61 38.132 84.939 40.36 81.546 34.753 80.759 31.01 74.627 29.401L47.91 22.378C31.94 18.182 15.97 13.984 0 9.786" fill="#ffffff" data-fill-palette-color="quaternary"></path><path d="M63.108 66.207L94.349 59.547C92.321 56.201 92.315 54.188 88.522 54.358 82.364 54.631 76.208 54.907 70.051 55.18 58.708 55.686 47.365 56.194 36.023 56.698 37.298 58.064 54.94 67.947 63.108 66.207" fill="#ffffff" data-fill-palette-color="quaternary"></path><path d="M87.682 90.213C93.407 86.494 94.944 82.492 98.201 76.406 101.852 69.582 99.458 68.562 95.38 61.81 94.963 61.122 89.538 62.042 88.927 62.714 88.182 63.532 88.679 68.169 88.633 69.21z" fill="#ffffff" data-fill-palette-color="quaternary"></path><path d="M86.35 63.447C82.555 64.256 77.746 63.638 76.778 67.676L72.658 84.887C81.904 82.678 86.028 71.582 86.35 63.447" fill="#ffffff" data-fill-palette-color="quaternary"></path><path d="M74.666 66.121C65.518 68.074 65.71 70.732 61.787 79.301 68.007 78.711 73.811 71.941 74.666 66.121" fill="#ffffff" data-fill-palette-color="quaternary"></path></svg></g></svg></g></svg></g></svg></g><g></g></svg></g><defs></defs></svg><rect width="231.10669563785598" height="247.2" fill="none" stroke="none" visibility="hidden"></rect></g></svg></g></svg>